<?xml version="1.0" encoding="UTF-8"?>
<svg fill="none" viewBox="0 0 37 24" xmlns="http://www.w3.org/2000/svg">
  <rect x=".65552" width="36.224" height="24" rx="10" fill="#8F4C27"/>
  <g clip-path="url(#a)" fill="#E3DCC3">
    <path d="m26.029 14.12-2.2621-1.48 0.8709-1.5968c0.2101-0.3987 0.3202-0.8424 0.3207-1.2931v-2.5312c0.0018-0.71173-0.2043-1.4085-0.5931-2.0047-0.3887-0.59621-0.943-1.0659-1.595-1.3515-0.6519-0.28554-1.3731-0.37448-2.0749-0.2559-0.7017 0.11859-1.3536 0.43954-1.8756 0.92344l0.7646 0.82536c0.3617-0.33438 0.813-0.55597 1.2988-0.63759 0.4857-0.08163 0.9847-0.01974 1.4358 0.17807s0.8346 0.52294 1.1036 0.93554c0.269 0.41259 0.4118 0.89472 0.4108 1.3873v2.5312c-1e-4 0.26239-0.0629 0.52099-0.1833 0.75419l-1.3681 2.5083 3.1309 2.0487c0.2067 0.1353 0.3763 0.32 0.4934 0.5375s0.178 0.4608 0.1771 0.7078v1.881h-2.5312v1.125h3.6562v-3.0061c0.0012-0.4338-0.1061-0.8611-0.3121-1.243-0.206-0.3818-0.5042-0.7062-0.8674-0.9435z"/>
    <path d="m20.966 15.245-2.262-1.48 0.8709-1.5968c0.2101-0.3987 0.3201-0.8424 0.3207-1.2931v-2.5312c-7e-4 -0.97023-0.3863-1.9006-1.0721-2.5869-0.6858-0.68633-1.6158-1.0726-2.586-1.0741-2.0151 0-3.6544 1.6423-3.6544 3.661v2.5312c-0.0022 0.4505 0.1067 0.8945 0.3169 1.2929l0.8757 1.6054-2.2489 1.4716c-0.3628 0.237-0.6607 0.5608-0.8667 0.942-0.2059 0.3813-0.3134 0.8079-0.3127 1.2412l-0.0176 3.0094h11.816v-3.0061c0.0011-0.4338-0.1062-0.8611-0.3122-1.243-0.206-0.3818-0.5041-0.7062-0.8674-0.9435zm0.0546 4.0676h-9.5592l0.0109-1.8811c-9e-4 -0.247 0.06-0.4903 0.1771-0.7077 0.1171-0.2175 0.2867-0.4023 0.4934-0.5375l3.1177-2.0401-1.3729-2.5169c-0.119-0.2335-0.1805-0.4921-0.1795-0.7542v-2.5312c0-0.67133 0.2667-1.3152 0.7414-1.7899s1.1185-0.74139 1.7898-0.74139c0.6714 0 1.3152 0.26669 1.7899 0.74139s0.7414 1.1185 0.7414 1.7899v2.5312c-1e-4 0.2624-0.063 0.521-0.1833 0.7542l-1.3682 2.5083 3.131 2.0487c0.2066 0.1353 0.3762 0.32 0.4933 0.5375s0.178 0.4608 0.1772 0.7078v1.881z"/>
  </g>
  <defs>
    <clipPath id="a">
      <rect transform="translate(9.7678 3)" width="18" height="18" fill="#fff"/>
    </clipPath>
  </defs>
</svg>
