<?xml version="1.0" encoding="UTF-8"?>
<svg fill="none" viewBox="0 0 37 25" xmlns="http://www.w3.org/2000/svg">
  <rect y=".21167" width="36.224" height="24" rx="10" fill="#272B8F"/>
  <g clip-path="url(#a)" fill="#C3D4E3">
    <path d="m25.374 14.332-2.2621-1.4801 0.8709-1.5967c0.2101-0.3987 0.3202-0.8425 0.3207-1.2931v-2.5312c0.0018-0.71173-0.2044-1.4085-0.5931-2.0047s-0.9431-1.0659-1.595-1.3515c-0.6519-0.28554-1.3731-0.37448-2.0749-0.2559-0.7018 0.11859-1.3536 0.43954-1.8756 0.92344l0.7646 0.82536c0.3617-0.33438 0.813-0.55597 1.2988-0.63759 0.4857-0.08163 0.9847-0.01974 1.4358 0.17807s0.8346 0.52294 1.1036 0.93553c0.269 0.4126 0.4118 0.89473 0.4108 1.3873v2.5312c-1e-4 0.26242-0.0629 0.52102-0.1833 0.75422l-1.3682 2.5083 3.131 2.0487c0.2067 0.1352 0.3763 0.32 0.4934 0.5375s0.178 0.4607 0.1771 0.7077v1.8811h-2.5312v1.125h3.6562v-3.0061c0.0012-0.4339-0.1062-0.8611-0.3122-1.243s-0.5041-0.7062-0.8673-0.9435z"/>
    <path d="m20.311 15.457-2.262-1.4801 0.8709-1.5967c0.21-0.3987 0.3201-0.8425 0.3207-1.2931v-2.5313c-8e-4 -0.97023-0.3863-1.9006-1.0721-2.5869-0.6858-0.68633-1.6158-1.0726-2.586-1.0741-2.0151 0-3.6544 1.6423-3.6544 3.661v2.5313c-0.0022 0.4504 0.1067 0.8945 0.3169 1.2929l0.8757 1.6053-2.2489 1.4717c-0.3628 0.2369-0.6607 0.5607-0.8667 0.942-0.20595 0.3812-0.31344 0.8079-0.31272 1.2412l-0.01758 3.0094h11.816v-3.0061c0.0011-0.4339-0.1062-0.8611-0.3122-1.243s-0.5042-0.7062-0.8674-0.9435zm0.0546 4.0676h-9.5593l0.0109-1.8811c-8e-4 -0.247 0.0601-0.4903 0.1772-0.7078 0.1171-0.2174 0.2867-0.4022 0.4934-0.5375l3.1177-2.04-1.3729-2.5169c-0.119-0.2336-0.1806-0.4921-0.1795-0.7542v-2.5313c0-0.67133 0.2667-1.3152 0.7414-1.7899s1.1185-0.74139 1.7898-0.74139c0.6714 0 1.3152 0.26669 1.7899 0.74139s0.7414 1.1185 0.7414 1.7899v2.5313c-1e-4 0.2624-0.063 0.521-0.1834 0.7542l-1.3681 2.5083 3.1309 2.0487c0.2067 0.1352 0.3763 0.32 0.4934 0.5375s0.178 0.4607 0.1772 0.7077v1.8811z"/>
  </g>
  <defs>
    <clipPath id="a">
      <rect transform="translate(9.1123 3.2117)" width="18" height="18" fill="#fff"/>
    </clipPath>
  </defs>
</svg>
