<svg width="127" height="29" viewBox="0 0 127 29" fill="none" xmlns="http://www.w3.org/2000/svg">
  <path d="M14.4044 18.2188C14.2469 19.8874 13.631 21.1908 12.5568 22.129C11.4825 23.06 10.0538 23.5255 8.27063 23.5255C7.02454 23.5255 5.92525 23.2318 4.97278 22.6446C4.02747 22.0502 3.297 21.2087 2.78137 20.1202C2.26575 19.0316 1.99719 17.7676 1.97571 16.3282V14.8672C1.97571 13.392 2.2371 12.0922 2.75989 10.9678C3.28267 9.84349 4.03105 8.97695 5.005 8.36823C5.98612 7.7595 7.11764 7.45514 8.39954 7.45514C10.1254 7.45514 11.5148 7.92421 12.5675 8.86237C13.6202 9.80052 14.2325 11.1254 14.4044 12.837H11.6974C11.5685 11.7126 11.2391 10.9034 10.7091 10.4092C10.1863 9.90794 9.41646 9.65729 8.39954 9.65729C7.2179 9.65729 6.30839 10.0906 5.67102 10.9571C5.04081 11.8165 4.71855 13.0805 4.70422 14.7491V16.1348C4.70422 17.8249 5.005 19.114 5.60657 20.002C6.21529 20.89 7.10331 21.334 8.27063 21.334C9.33769 21.334 10.1398 21.0941 10.6769 20.6143C11.214 20.1345 11.5542 19.336 11.6974 18.2188H14.4044ZM16.1017 17.3917C16.1017 16.253 16.3273 15.2289 16.7784 14.3194C17.2296 13.4027 17.8634 12.7009 18.6798 12.2139C19.4962 11.7198 20.4344 11.4727 21.4943 11.4727C23.0626 11.4727 24.3338 11.9776 25.3077 12.9874C26.2889 13.9971 26.8188 15.3363 26.8976 17.0049L26.9083 17.6172C26.9083 18.7631 26.6863 19.7872 26.2423 20.6895C25.8055 21.5919 25.1753 22.2901 24.3517 22.7842C23.5353 23.2784 22.59 23.5255 21.5157 23.5255C19.8758 23.5255 18.5616 22.9812 17.5734 21.8926C16.5922 20.7969 16.1017 19.3396 16.1017 17.5206V17.3917ZM18.712 17.6172C18.712 18.8132 18.9591 19.7514 19.4532 20.4317C19.9474 21.1049 20.6349 21.4415 21.5157 21.4415C22.3966 21.4415 23.0805 21.0977 23.5675 20.4102C24.0616 19.7227 24.3087 18.7165 24.3087 17.3917C24.3087 16.2172 24.0545 15.2862 23.546 14.5987C23.0447 13.9112 22.3608 13.5674 21.4943 13.5674C20.642 13.5674 19.9653 13.9076 19.464 14.588C18.9627 15.2611 18.712 16.2709 18.712 17.6172ZM31.5382 11.6876L31.6134 13.0303C32.4728 11.9919 33.6007 11.4727 34.9972 11.4727C37.4178 11.4727 38.6495 12.8585 38.6925 15.6299V23.3106H36.0822V15.7803C36.0822 15.0427 35.921 14.4984 35.5988 14.1475C35.2837 13.7894 34.7644 13.6104 34.0411 13.6104C32.9884 13.6104 32.2042 14.0866 31.6886 15.0391V23.3106H29.0782V11.6876H31.5382ZM46.1368 21.4415C46.7885 21.4415 47.3292 21.2517 47.7589 20.8721C48.1886 20.4926 48.4178 20.0235 48.4464 19.4649H50.9064C50.8777 20.1882 50.6521 20.865 50.2296 21.4952C49.8071 22.1182 49.2342 22.6124 48.5109 22.9776C47.7876 23.3428 47.007 23.5255 46.1691 23.5255C44.5434 23.5255 43.2544 22.9991 42.3019 21.9464C41.3494 20.8936 40.8732 19.4398 40.8732 17.585V17.3165C40.8732 15.5476 41.3458 14.1332 42.2911 13.0733C43.2365 12.0062 44.5255 11.4727 46.1583 11.4727C47.5405 11.4727 48.6648 11.8773 49.5314 12.6866C50.4051 13.4887 50.8634 14.545 50.9064 15.8555H48.4464C48.4178 15.1895 48.1886 14.6417 47.7589 14.212C47.3364 13.7823 46.7957 13.5674 46.1368 13.5674C45.2918 13.5674 44.6401 13.8754 44.1818 14.4913C43.7234 15.1 43.4907 16.0274 43.4835 17.2735V17.6924C43.4835 18.9529 43.7091 19.8946 44.1603 20.5176C44.6186 21.1335 45.2775 21.4415 46.1368 21.4415ZM55.6544 23.3106H53.0441V6.81061H55.6544V23.3106ZM65.4513 23.3106C65.3367 23.0886 65.2365 22.7269 65.1505 22.2256C64.3198 23.0922 63.3029 23.5255 62.0997 23.5255C60.9324 23.5255 59.9799 23.1924 59.2423 22.5264C58.5047 21.8604 58.1359 21.0368 58.1359 20.0557C58.1359 18.8168 58.5942 17.8679 59.5109 17.209C60.4347 16.543 61.7524 16.21 63.464 16.21H65.0646V15.4473C65.0646 14.8458 64.8963 14.3659 64.5597 14.0079C64.2231 13.6426 63.7111 13.46 63.0236 13.46C62.4292 13.46 61.9422 13.6104 61.5626 13.9112C61.1831 14.2048 60.9933 14.5808 60.9933 15.0391H58.3829C58.3829 14.4018 58.5942 13.8074 59.0167 13.2559C59.4392 12.6973 60.0122 12.2605 60.7355 11.9454C61.4659 11.6303 62.2788 11.4727 63.174 11.4727C64.5346 11.4727 65.6196 11.8165 66.4288 12.504C67.2381 13.1843 67.6534 14.1439 67.6749 15.3829V20.6251C67.6749 21.6706 67.8217 22.5049 68.1154 23.128V23.3106H65.4513ZM62.5831 21.4307C63.0988 21.4307 63.5822 21.3054 64.0333 21.0547C64.4917 20.8041 64.8354 20.4675 65.0646 20.045V17.8536H63.6573C62.6906 17.8536 61.9637 18.0219 61.4767 18.3585C60.9897 18.695 60.7462 19.1713 60.7462 19.7872C60.7462 20.2885 60.9109 20.6895 61.2404 20.9903C61.5769 21.2839 62.0245 21.4307 62.5831 21.4307ZM76.924 20.1524C76.924 19.6869 76.7306 19.3324 76.3439 19.0889C75.9643 18.8454 75.3305 18.6306 74.4425 18.4444C73.5545 18.2582 72.8133 18.0219 72.2189 17.7354C70.9155 17.1052 70.2638 16.1921 70.2638 14.9962C70.2638 13.9936 70.6863 13.1557 71.5314 12.4825C72.3764 11.8093 73.4506 11.4727 74.754 11.4727C76.1434 11.4727 77.2641 11.8165 78.1163 12.504C78.9757 13.1915 79.4054 14.0831 79.4054 15.1788H76.795C76.795 14.6775 76.6088 14.2621 76.2365 13.9327C75.8641 13.5961 75.3699 13.4278 74.754 13.4278C74.1811 13.4278 73.712 13.5603 73.3468 13.8253C72.9887 14.0902 72.8097 14.4447 72.8097 14.8887C72.8097 15.2898 72.978 15.6013 73.3146 15.8233C73.6512 16.0453 74.3315 16.2709 75.3556 16.5001C76.3797 16.7221 77.1818 16.9906 77.7618 17.3057C78.3491 17.6137 78.7823 17.9861 79.0616 18.4229C79.3481 18.8598 79.4913 19.3897 79.4913 20.0128C79.4913 21.0583 79.0581 21.907 78.1915 22.5587C77.325 23.2032 76.1899 23.5255 74.7863 23.5255C73.8338 23.5255 72.9851 23.3536 72.2404 23.0098C71.4956 22.6661 70.9155 22.1934 70.5001 21.5919C70.0848 20.9903 69.8771 20.3422 69.8771 19.6475H72.4122C72.448 20.2634 72.6808 20.7396 73.1105 21.0762C73.5402 21.4057 74.1095 21.5704 74.8185 21.5704C75.506 21.5704 76.0288 21.4415 76.3868 21.1837C76.7449 20.9187 76.924 20.5749 76.924 20.1524ZM86.8927 23.5255C85.2384 23.5255 83.8956 23.0062 82.8644 21.9678C81.8403 20.9223 81.3282 19.5329 81.3282 17.7999V17.4776C81.3282 16.3174 81.5503 15.2826 81.9943 14.3731C82.4454 13.4564 83.0756 12.7439 83.8849 12.2354C84.6941 11.7269 85.5965 11.4727 86.5919 11.4727C88.1746 11.4727 89.3956 11.9776 90.255 12.9874C91.1215 13.9971 91.5548 15.4258 91.5548 17.2735V18.3262H83.9601C84.0389 19.2859 84.3575 20.045 84.9161 20.6036C85.4819 21.1622 86.1909 21.4415 87.0431 21.4415C88.2391 21.4415 89.213 20.9581 89.965 19.9913L91.3722 21.334C90.9067 22.0287 90.2837 22.5694 89.5031 22.9561C88.7296 23.3357 87.8595 23.5255 86.8927 23.5255ZM86.5812 13.5674C85.865 13.5674 85.285 13.8181 84.8409 14.3194C84.4041 14.8207 84.1248 15.5189 84.0031 16.4141H88.9767V16.2208C88.9194 15.3471 88.6866 14.6882 88.2784 14.2442C87.8702 13.793 87.3045 13.5674 86.5812 13.5674ZM106.261 23.3106H103.554V16.3604H96.5607V23.3106H93.8429V7.66998H96.5607V14.1797H103.554V7.66998H106.261V23.3106ZM115.317 14.0723C114.973 14.015 114.618 13.9864 114.253 13.9864C113.057 13.9864 112.251 14.4447 111.836 15.3614V23.3106H109.226V11.6876H111.718L111.782 12.9874C112.413 11.9776 113.286 11.4727 114.403 11.4727C114.776 11.4727 115.084 11.5228 115.327 11.6231L115.317 14.0723Z" fill="#F5F5FA"/>
  <circle cx="113.726" cy="6.41758" r="2.01932" fill="#C28221"/>
  <circle cx="117.195" cy="3.92384" r="1.44923" fill="#C28221"/>
  <circle cx="119.807" cy="1.87913" r="1.16288" fill="#C28221"/>
</svg>
