<svg width="19" height="18" viewBox="0 0 19 18" fill="none" xmlns="http://www.w3.org/2000/svg">
  <path d="M16.0899 13.5V14.25C16.0899 15.075 15.4149 15.75 14.5899 15.75H4.0899C3.2574 15.75 2.5899 15.075 2.5899 14.25V3.75C2.5899 2.925 3.2574 2.25 4.0899 2.25H14.5899C15.4149 2.25 16.0899 2.925 16.0899 3.75V4.5H9.3399C8.5074 4.5 7.8399 5.175 7.8399 6V12C7.8399 12.825 8.5074 13.5 9.3399 13.5H16.0899ZM9.3399 12H16.8399V6H9.3399V12ZM12.3399 10.125C11.7174 10.125 11.2149 9.6225 11.2149 9C11.2149 8.3775 11.7174 7.875 12.3399 7.875C12.9624 7.875 13.4649 8.3775 13.4649 9C13.4649 9.6225 12.9624 10.125 12.3399 10.125Z" fill="#F5F5FA"/>
</svg>
