<svg width="25" height="19" viewBox="0 0 25 19" fill="none" xmlns="http://www.w3.org/2000/svg">
  <path d="M17.0853 7.75048C18.8962 7.75048 20.3471 6.02762 20.3471 3.89334C20.3471 1.75905 18.8962 0.0361938 17.0853 0.0361938C15.2744 0.0361938 13.8126 1.75905 13.8126 3.89334C13.8126 6.02762 15.2744 7.75048 17.0853 7.75048ZM8.35804 7.75048C10.169 7.75048 11.6199 6.02762 11.6199 3.89334C11.6199 1.75905 10.169 0.0361938 8.35804 0.0361938C6.54713 0.0361938 5.08532 1.75905 5.08532 3.89334C5.08532 6.02762 6.54713 7.75048 8.35804 7.75048ZM8.35804 10.3219C5.81623 10.3219 0.72168 11.8262 0.72168 14.8219V18.0362H15.9944V14.8219C15.9944 11.8262 10.8999 10.3219 8.35804 10.3219ZM17.0853 10.3219C16.769 10.3219 16.409 10.3476 16.0271 10.3862C17.2926 11.4662 18.1762 12.9191 18.1762 14.8219V18.0362H24.7217V14.8219C24.7217 11.8262 19.6271 10.3219 17.0853 10.3219Z" fill="#F5F5FA"/>
</svg>
